<svg width="26" height="23" viewBox="0 0 26 23" fill="none" xmlns="http://www.w3.org/2000/svg">
<path d="M25.6013 5.80186L17.8888 0.150779C17.796 0.0832022 17.737 0.0578613 17.6104 0.0578613H15.4671C14.9861 0.0578613 14.4883 0.446426 14.3533 0.936355L8.66594 22.1807C8.54781 22.6369 8.81783 23.0001 9.26505 23.0001H11.9231C12.3787 23.0001 12.8428 22.6284 12.9694 22.1807L13.2985 20.9559L14.6908 15.7525L15.7877 11.6642L17.5598 5.02473C17.6019 4.85579 17.8045 4.78821 17.9395 4.88958L22.3779 8.14169C22.5383 8.25995 22.5383 8.49647 22.3779 8.61472L17.5851 12.1287C17.3657 12.2892 17.2307 12.5933 17.2307 12.9312V16.2425C17.2307 16.8169 17.7032 16.7408 18.0829 16.4621L25.5929 10.9546C25.7701 10.8279 25.8798 10.5829 25.8798 10.3126V6.43538C25.8798 6.17353 25.7701 5.92856 25.6013 5.80186Z" fill="#551B76"/>
<path d="M8.64911 0.353448V3.81674C8.64911 4.15462 8.50566 4.46716 8.28626 4.6361L3.50183 8.15008C3.34995 8.25989 3.34995 8.50485 3.50183 8.62311L8.2947 12.1371C8.51409 12.2976 8.64911 12.6101 8.64911 12.9396V16.2508C8.64911 16.8252 8.17657 16.7492 7.79685 16.4704L0.286897 10.9629C0.109696 10.8362 0 10.5913 0 10.321V6.43533C0 6.17347 0.109696 5.9285 0.278459 5.8018L7.99093 0.150718C8.28626 -0.0689054 8.64911 -0.0857989 8.64911 0.353448Z" fill="#29ADEB"/>
</svg>
